<?xml version="1.0" encoding="UTF-8" standalone="no"?>
<!DOCTYPE svg PUBLIC "-//W3C//DTD SVG 1.1//EN"
 "http://www.w3.org/Graphics/SVG/1.1/DTD/svg11.dtd">
<!-- Generated by graphviz version 2.28.0 (20111028.1807)
 -->
<!-- Title: heapdump Pages: 1 -->
<svg width="678pt" height="1711pt"
 viewBox="0.00 0.00 678.00 1711.00" xmlns="http://www.w3.org/2000/svg" xmlns:xlink="http://www.w3.org/1999/xlink">
<g id="graph1" class="graph" transform="scale(1 1) rotate(0) translate(4 1707)">
<title>heapdump</title>
<polygon fill="white" stroke="white" points="-4,5 -4,-1707 675,-1707 675,5 -4,5"/>
<!-- node_0x1800178 -->
<g id="node1" class="node"><title>node_0x1800178</title>
<polygon fill="none" stroke="black" points="32.0835,-27 32.0835,-63 101.917,-63 101.917,-27 32.0835,-27"/>
<text text-anchor="middle" x="67" y="-52" font-family="Times,serif" font-size="6.00">0x1800178</text>
<polyline fill="none" stroke="black" points="32.0835,-45.8 101.917,-45.8 "/>
<text text-anchor="middle" x="67" y="-34.3" font-family="Times,serif" font-size="6.00">System.MonoListItem</text>
</g>
<!-- node_0x750028 -->
<g id="node3" class="node"><title>node_0x750028</title>
<polygon fill="none" stroke="black" points="197.583,-27 197.583,-63 266.417,-63 266.417,-27 197.583,-27"/>
<text text-anchor="middle" x="232" y="-52" font-family="Times,serif" font-size="6.00">0x750028</text>
<polyline fill="none" stroke="black" points="197.583,-45.8 266.417,-45.8 "/>
<text text-anchor="middle" x="232" y="-34.3" font-family="Times,serif" font-size="6.00">System.MonoCQItem</text>
</g>
<!-- node_0x1800178&#45;&gt;node_0x750028 -->
<g id="edge2" class="edge"><title>node_0x1800178:f0&#45;&gt;node_0x750028:f0</title>
<path fill="none" stroke="black" d="M103,-54C141.188,-54 153.196,-54 186.884,-54"/>
<polygon fill="black" stroke="black" points="187,-57.5001 197,-54 187,-50.5001 187,-57.5001"/>
</g>
<!-- node_0x748068 -->
<g id="node22" class="node"><title>node_0x748068</title>
<polygon fill="none" stroke="black" points="331,-55 331,-91 385,-91 385,-55 331,-55"/>
<text text-anchor="middle" x="358" y="-80" font-family="Times,serif" font-size="6.00">0x748068</text>
<polyline fill="none" stroke="black" points="331,-73.8 385,-73.8 "/>
<text text-anchor="middle" x="358" y="-62.3" font-family="Times,serif" font-size="6.00">System.Byte[]</text>
</g>
<!-- node_0x750028&#45;&gt;node_0x748068 -->
<g id="edge18" class="edge"><title>node_0x750028:f0&#45;&gt;node_0x748068:f0</title>
<path fill="none" stroke="black" d="M267,-54C293.93,-54 298.519,-75.6293 320.038,-80.8677"/>
<polygon fill="black" stroke="black" points="319.669,-84.3481 330,-82 320.459,-77.3929 319.669,-84.3481"/>
</g>
<!-- node_0x74c170 -->
<g id="node24" class="node"><title>node_0x74c170</title>
<polygon fill="none" stroke="black" points="330.421,-0 330.421,-36 385.579,-36 385.579,-0 330.421,-0"/>
<text text-anchor="middle" x="358" y="-25" font-family="Times,serif" font-size="6.00">0x74c170</text>
<polyline fill="none" stroke="black" points="330.421,-18.8 385.579,-18.8 "/>
<text text-anchor="middle" x="358" y="-7.3" font-family="Times,serif" font-size="6.00">System.Object[]</text>
</g>
<!-- node_0x750028&#45;&gt;node_0x74c170 -->
<g id="edge16" class="edge"><title>node_0x750028:f0&#45;&gt;node_0x74c170:f0</title>
<path fill="none" stroke="black" d="M267,-54C293.655,-54 298.575,-33.3281 319.796,-28.1602"/>
<polygon fill="black" stroke="black" points="320.459,-31.6074 330,-27 319.669,-24.6522 320.459,-31.6074"/>
</g>
<!-- node_0x1800300 -->
<g id="node4" class="node"><title>node_0x1800300</title>
<polygon fill="none" stroke="black" points="32.0835,-137 32.0835,-173 101.917,-173 101.917,-137 32.0835,-137"/>
<text text-anchor="middle" x="67" y="-162" font-family="Times,serif" font-size="6.00">0x1800300</text>
<polyline fill="none" stroke="black" points="32.0835,-155.8 101.917,-155.8 "/>
<text text-anchor="middle" x="67" y="-144.3" font-family="Times,serif" font-size="6.00">System.MonoListItem</text>
</g>
<!-- node_0x750010 -->
<g id="node6" class="node"><title>node_0x750010</title>
<polygon fill="none" stroke="black" points="197.583,-137 197.583,-173 266.417,-173 266.417,-137 197.583,-137"/>
<text text-anchor="middle" x="232" y="-162" font-family="Times,serif" font-size="6.00">0x750010</text>
<polyline fill="none" stroke="black" points="197.583,-155.8 266.417,-155.8 "/>
<text text-anchor="middle" x="232" y="-144.3" font-family="Times,serif" font-size="6.00">System.MonoCQItem</text>
</g>
<!-- node_0x1800300&#45;&gt;node_0x750010 -->
<g id="edge4" class="edge"><title>node_0x1800300:f0&#45;&gt;node_0x750010:f0</title>
<path fill="none" stroke="black" d="M103,-164C141.188,-164 153.196,-164 186.884,-164"/>
<polygon fill="black" stroke="black" points="187,-167.5 197,-164 187,-160.5 187,-167.5"/>
</g>
<!-- node_0x748010 -->
<g id="node21" class="node"><title>node_0x748010</title>
<polygon fill="none" stroke="black" points="331,-165 331,-201 385,-201 385,-165 331,-165"/>
<text text-anchor="middle" x="358" y="-190" font-family="Times,serif" font-size="6.00">0x748010</text>
<polyline fill="none" stroke="black" points="331,-183.8 385,-183.8 "/>
<text text-anchor="middle" x="358" y="-172.3" font-family="Times,serif" font-size="6.00">System.Byte[]</text>
</g>
<!-- node_0x750010&#45;&gt;node_0x748010 -->
<g id="edge14" class="edge"><title>node_0x750010:f0&#45;&gt;node_0x748010:f0</title>
<path fill="none" stroke="black" d="M267,-164C293.93,-164 298.519,-185.629 320.038,-190.868"/>
<polygon fill="black" stroke="black" points="319.669,-194.348 330,-192 320.459,-187.393 319.669,-194.348"/>
</g>
<!-- node_0x74c010 -->
<g id="node23" class="node"><title>node_0x74c010</title>
<polygon fill="none" stroke="black" points="330.421,-110 330.421,-146 385.579,-146 385.579,-110 330.421,-110"/>
<text text-anchor="middle" x="358" y="-135" font-family="Times,serif" font-size="6.00">0x74c010</text>
<polyline fill="none" stroke="black" points="330.421,-128.8 385.579,-128.8 "/>
<text text-anchor="middle" x="358" y="-117.3" font-family="Times,serif" font-size="6.00">System.Object[]</text>
</g>
<!-- node_0x750010&#45;&gt;node_0x74c010 -->
<g id="edge12" class="edge"><title>node_0x750010:f0&#45;&gt;node_0x74c010:f0</title>
<path fill="none" stroke="black" d="M267,-164C293.655,-164 298.575,-143.328 319.796,-138.16"/>
<polygon fill="black" stroke="black" points="320.459,-141.607 330,-137 319.669,-134.652 320.459,-141.607"/>
</g>
<!-- node_0x18007b8 -->
<g id="node7" class="node"><title>node_0x18007b8</title>
<polygon fill="none" stroke="black" points="40,-192 40,-228 94,-228 94,-192 40,-192"/>
<text text-anchor="middle" x="67" y="-217" font-family="Times,serif" font-size="6.00">0x18007b8</text>
<polyline fill="none" stroke="black" points="40,-210.8 94,-210.8 "/>
<text text-anchor="middle" x="67" y="-199.3" font-family="Times,serif" font-size="6.00">System.String[]</text>
</g>
<!-- node_0x1800898 -->
<g id="node8" class="node"><title>node_0x1800898</title>
<polygon fill="none" stroke="black" points="182.59,-311 182.59,-347 281.41,-347 281.41,-311 182.59,-311"/>
<text text-anchor="middle" x="232" y="-336" font-family="Times,serif" font-size="6.00">0x1800898</text>
<polyline fill="none" stroke="black" points="182.59,-329.8 281.41,-329.8 "/>
<text text-anchor="middle" x="232" y="-318.3" font-family="Times,serif" font-size="6.00">System.Collections.Generic.List`1</text>
</g>
<!-- node_0x75c048 -->
<g id="node10" class="node"><title>node_0x75c048</title>
<polygon fill="none" stroke="black" points="330.421,-311 330.421,-347 385.579,-347 385.579,-311 330.421,-311"/>
<text text-anchor="middle" x="358" y="-336" font-family="Times,serif" font-size="6.00">0x75c048</text>
<polyline fill="none" stroke="black" points="330.421,-329.8 385.579,-329.8 "/>
<text text-anchor="middle" x="358" y="-318.3" font-family="Times,serif" font-size="6.00">System.Object[]</text>
</g>
<!-- node_0x1800898&#45;&gt;node_0x75c048 -->
<g id="edge6" class="edge"><title>node_0x1800898:f0&#45;&gt;node_0x75c048:f0</title>
<path fill="none" stroke="black" d="M282,-338C299.5,-338 306.233,-338 319.864,-338"/>
<polygon fill="black" stroke="black" points="320,-341.5 330,-338 320,-334.5 320,-341.5"/>
</g>
<!-- node_0x754010 -->
<g id="node32" class="node"><title>node_0x754010</title>
<polygon fill="none" stroke="black" points="422,-503 422,-539 476,-539 476,-503 422,-503"/>
<text text-anchor="middle" x="449" y="-528" font-family="Times,serif" font-size="6.00">0x754010</text>
<polyline fill="none" stroke="black" points="422,-521.8 476,-521.8 "/>
<text text-anchor="middle" x="449" y="-510.3" font-family="Times,serif" font-size="6.00">System.Byte[]</text>
</g>
<!-- node_0x75c048&#45;&gt;node_0x754010 -->
<g id="edge26" class="edge"><title>node_0x75c048:f0&#45;&gt;node_0x754010:f0</title>
<path fill="none" stroke="black" d="M386,-338C469.09,-338 346.594,-513.854 412.016,-528.967"/>
<polygon fill="black" stroke="black" points="411.693,-532.452 422,-530 412.413,-525.489 411.693,-532.452"/>
</g>
<!-- node_0x754088 -->
<g id="node33" class="node"><title>node_0x754088</title>
<polygon fill="none" stroke="black" points="422,-448 422,-484 476,-484 476,-448 422,-448"/>
<text text-anchor="middle" x="449" y="-473" font-family="Times,serif" font-size="6.00">0x754088</text>
<polyline fill="none" stroke="black" points="422,-466.8 476,-466.8 "/>
<text text-anchor="middle" x="449" y="-455.3" font-family="Times,serif" font-size="6.00">System.Byte[]</text>
</g>
<!-- node_0x75c048&#45;&gt;node_0x754088 -->
<g id="edge28" class="edge"><title>node_0x75c048:f0&#45;&gt;node_0x754088:f0</title>
<path fill="none" stroke="black" d="M386,-338C445.021,-338 369.686,-458.41 411.913,-473.461"/>
<polygon fill="black" stroke="black" points="411.587,-476.952 422,-475 412.642,-470.032 411.587,-476.952"/>
</g>
<!-- node_0x754100 -->
<g id="node34" class="node"><title>node_0x754100</title>
<polygon fill="none" stroke="black" points="422,-393 422,-429 476,-429 476,-393 422,-393"/>
<text text-anchor="middle" x="449" y="-418" font-family="Times,serif" font-size="6.00">0x754100</text>
<polyline fill="none" stroke="black" points="422,-411.8 476,-411.8 "/>
<text text-anchor="middle" x="449" y="-400.3" font-family="Times,serif" font-size="6.00">System.Byte[]</text>
</g>
<!-- node_0x75c048&#45;&gt;node_0x754100 -->
<g id="edge30" class="edge"><title>node_0x75c048:f0&#45;&gt;node_0x754100:f0</title>
<path fill="none" stroke="black" d="M386,-338C421.76,-338 390.195,-404.19 412.279,-417.634"/>
<polygon fill="black" stroke="black" points="411.456,-421.036 422,-420 413.111,-414.235 411.456,-421.036"/>
</g>
<!-- node_0x754178 -->
<g id="node35" class="node"><title>node_0x754178</title>
<polygon fill="none" stroke="black" points="422,-338 422,-374 476,-374 476,-338 422,-338"/>
<text text-anchor="middle" x="449" y="-363" font-family="Times,serif" font-size="6.00">0x754178</text>
<polyline fill="none" stroke="black" points="422,-356.8 476,-356.8 "/>
<text text-anchor="middle" x="449" y="-345.3" font-family="Times,serif" font-size="6.00">System.Byte[]</text>
</g>
<!-- node_0x75c048&#45;&gt;node_0x754178 -->
<g id="edge32" class="edge"><title>node_0x75c048:f0&#45;&gt;node_0x754178:f0</title>
<path fill="none" stroke="black" d="M386,-338C401.938,-338 402.635,-355.145 412.381,-362.111"/>
<polygon fill="black" stroke="black" points="411.416,-365.475 422,-365 413.43,-358.771 411.416,-365.475"/>
</g>
<!-- node_0x7541f0 -->
<g id="node36" class="node"><title>node_0x7541f0</title>
<polygon fill="none" stroke="black" points="422,-283 422,-319 476,-319 476,-283 422,-283"/>
<text text-anchor="middle" x="449" y="-308" font-family="Times,serif" font-size="6.00">0x7541f0</text>
<polyline fill="none" stroke="black" points="422,-301.8 476,-301.8 "/>
<text text-anchor="middle" x="449" y="-290.3" font-family="Times,serif" font-size="6.00">System.Byte[]</text>
</g>
<!-- node_0x75c048&#45;&gt;node_0x7541f0 -->
<g id="edge34" class="edge"><title>node_0x75c048:f0&#45;&gt;node_0x7541f0:f0</title>
<path fill="none" stroke="black" d="M386,-338C402.152,-338 402.551,-320.22 412.303,-312.996"/>
<polygon fill="black" stroke="black" points="413.479,-316.296 422,-310 411.412,-309.609 413.479,-316.296"/>
</g>
<!-- node_0x758010 -->
<g id="node38" class="node"><title>node_0x758010</title>
<polygon fill="none" stroke="black" points="422,-228 422,-264 476,-264 476,-228 422,-228"/>
<text text-anchor="middle" x="449" y="-253" font-family="Times,serif" font-size="6.00">0x758010</text>
<polyline fill="none" stroke="black" points="422,-246.8 476,-246.8 "/>
<text text-anchor="middle" x="449" y="-235.3" font-family="Times,serif" font-size="6.00">System.Object</text>
</g>
<!-- node_0x75c048&#45;&gt;node_0x758010 -->
<g id="edge22" class="edge"><title>node_0x75c048:f0&#45;&gt;node_0x758010:f0</title>
<path fill="none" stroke="black" d="M386,-338C422.126,-338 389.94,-271.003 412.19,-257.395"/>
<polygon fill="black" stroke="black" points="413.115,-260.772 422,-255 411.455,-253.971 413.115,-260.772"/>
</g>
<!-- node_0x758018 -->
<g id="node39" class="node"><title>node_0x758018</title>
<polygon fill="none" stroke="black" points="422,-173 422,-209 476,-209 476,-173 422,-173"/>
<text text-anchor="middle" x="449" y="-198" font-family="Times,serif" font-size="6.00">0x758018</text>
<polyline fill="none" stroke="black" points="422,-191.8 476,-191.8 "/>
<text text-anchor="middle" x="449" y="-180.3" font-family="Times,serif" font-size="6.00">System.Object</text>
</g>
<!-- node_0x75c048&#45;&gt;node_0x758018 -->
<g id="edge24" class="edge"><title>node_0x75c048:f0&#45;&gt;node_0x758018:f0</title>
<path fill="none" stroke="black" d="M386,-338C445.424,-338 369.358,-216.711 411.846,-201.55"/>
<polygon fill="black" stroke="black" points="412.643,-204.969 422,-200 411.586,-198.049 412.643,-204.969"/>
</g>
<!-- node_0x760020 -->
<g id="node53" class="node"><title>node_0x760020</title>
<polygon fill="none" stroke="black" points="422,-118 422,-154 476,-154 476,-118 422,-118"/>
<text text-anchor="middle" x="449" y="-143" font-family="Times,serif" font-size="6.00">0x760020</text>
<polyline fill="none" stroke="black" points="422,-136.8 476,-136.8 "/>
<text text-anchor="middle" x="449" y="-125.3" font-family="Times,serif" font-size="6.00">.Foo</text>
</g>
<!-- node_0x75c048&#45;&gt;node_0x760020 -->
<g id="edge36" class="edge"><title>node_0x75c048:f0&#45;&gt;node_0x760020:f0</title>
<path fill="none" stroke="black" d="M386,-338C469.508,-338 346.229,-161.23 411.967,-146.038"/>
<polygon fill="black" stroke="black" points="412.413,-149.511 422,-145 411.693,-142.548 412.413,-149.511"/>
</g>
<!-- node_0x734010 -->
<g id="node11" class="node"><title>node_0x734010</title>
<polygon fill="none" stroke="black" points="0.278809,-307 0.278809,-343 133.721,-343 133.721,-307 0.278809,-307"/>
<text text-anchor="middle" x="67" y="-332" font-family="Times,serif" font-size="6.00">0x734010</text>
<polyline fill="none" stroke="black" points="0.278809,-325.8 133.721,-325.8 "/>
<text text-anchor="middle" x="67" y="-314.3" font-family="Times,serif" font-size="6.00">System.Security.Permissions.SecurityPermission</text>
</g>
<!-- node_0x738010 -->
<g id="node12" class="node"><title>node_0x738010</title>
<polygon fill="none" stroke="black" points="205,-366 205,-402 259,-402 259,-366 205,-366"/>
<text text-anchor="middle" x="232" y="-391" font-family="Times,serif" font-size="6.00">0x738010</text>
<polyline fill="none" stroke="black" points="205,-384.8 259,-384.8 "/>
<text text-anchor="middle" x="232" y="-373.3" font-family="Times,serif" font-size="6.00">System.String</text>
</g>
<!-- node_0x73c010 -->
<g id="node13" class="node"><title>node_0x73c010</title>
<polygon fill="none" stroke="black" points="205,-421 205,-457 259,-457 259,-421 205,-421"/>
<text text-anchor="middle" x="232" y="-446" font-family="Times,serif" font-size="6.00">0x73c010</text>
<polyline fill="none" stroke="black" points="205,-439.8 259,-439.8 "/>
<text text-anchor="middle" x="232" y="-428.3" font-family="Times,serif" font-size="6.00">System.String</text>
</g>
<!-- node_0x740010 -->
<g id="node14" class="node"><title>node_0x740010</title>
<polygon fill="none" stroke="black" points="27.7505,-503 27.7505,-539 106.25,-539 106.25,-503 27.7505,-503"/>
<text text-anchor="middle" x="67" y="-528" font-family="Times,serif" font-size="6.00">0x740010</text>
<polyline fill="none" stroke="black" points="27.7505,-521.8 106.25,-521.8 "/>
<text text-anchor="middle" x="67" y="-510.3" font-family="Times,serif" font-size="6.00">System.AppDomainSetup</text>
</g>
<!-- node_0x7480c0 -->
<g id="node16" class="node"><title>node_0x7480c0</title>
<polygon fill="none" stroke="black" points="205,-531 205,-567 259,-567 259,-531 205,-531"/>
<text text-anchor="middle" x="232" y="-556" font-family="Times,serif" font-size="6.00">0x7480c0</text>
<polyline fill="none" stroke="black" points="205,-549.8 259,-549.8 "/>
<text text-anchor="middle" x="232" y="-538.3" font-family="Times,serif" font-size="6.00">System.String</text>
</g>
<!-- node_0x740010&#45;&gt;node_0x7480c0 -->
<g id="edge8" class="edge"><title>node_0x740010:f0&#45;&gt;node_0x7480c0:f0</title>
<path fill="none" stroke="black" d="M107,-530C148.19,-530 157.685,-553.595 193.675,-557.466"/>
<polygon fill="black" stroke="black" points="193.832,-560.978 204,-558 194.194,-553.988 193.832,-560.978"/>
</g>
<!-- node_0x754268 -->
<g id="node18" class="node"><title>node_0x754268</title>
<polygon fill="none" stroke="black" points="205,-476 205,-512 259,-512 259,-476 205,-476"/>
<text text-anchor="middle" x="232" y="-501" font-family="Times,serif" font-size="6.00">0x754268</text>
<polyline fill="none" stroke="black" points="205,-494.8 259,-494.8 "/>
<text text-anchor="middle" x="232" y="-483.3" font-family="Times,serif" font-size="6.00">System.String</text>
</g>
<!-- node_0x740010&#45;&gt;node_0x754268 -->
<g id="edge10" class="edge"><title>node_0x740010:f0&#45;&gt;node_0x754268:f0</title>
<path fill="none" stroke="black" d="M107,-530C148.079,-530 157.769,-507.248 193.698,-503.515"/>
<polygon fill="black" stroke="black" points="194.187,-506.995 204,-503 193.838,-500.004 194.187,-506.995"/>
</g>
<!-- node_0x740068 -->
<g id="node19" class="node"><title>node_0x740068</title>
<polygon fill="none" stroke="black" points="34.584,-558 34.584,-594 99.416,-594 99.416,-558 34.584,-558"/>
<text text-anchor="middle" x="67" y="-583" font-family="Times,serif" font-size="6.00">0x740068</text>
<polyline fill="none" stroke="black" points="34.584,-576.8 99.416,-576.8 "/>
<text text-anchor="middle" x="67" y="-565.3" font-family="Times,serif" font-size="6.00">System.AppDomain</text>
</g>
<!-- node_0x744010 -->
<g id="node20" class="node"><title>node_0x744010</title>
<polygon fill="none" stroke="black" points="40,-613 40,-649 94,-649 94,-613 40,-613"/>
<text text-anchor="middle" x="67" y="-638" font-family="Times,serif" font-size="6.00">0x744010</text>
<polyline fill="none" stroke="black" points="40,-631.8 94,-631.8 "/>
<text text-anchor="middle" x="67" y="-620.3" font-family="Times,serif" font-size="6.00">System.String</text>
</g>
<!-- node_0x750040 -->
<g id="node29" class="node"><title>node_0x750040</title>
<polygon fill="none" stroke="black" points="182.833,-668 182.833,-704 281.167,-704 281.167,-668 182.833,-668"/>
<text text-anchor="middle" x="232" y="-693" font-family="Times,serif" font-size="6.00">0x750040</text>
<polyline fill="none" stroke="black" points="182.833,-686.8 281.167,-686.8 "/>
<text text-anchor="middle" x="232" y="-675.3" font-family="Times,serif" font-size="6.00">System.Reflection.MonoCMethod</text>
</g>
<!-- node_0x77c1b0 -->
<g id="node31" class="node"><title>node_0x77c1b0</title>
<polygon fill="none" stroke="black" points="330.837,-677 330.837,-713 385.163,-713 385.163,-677 330.837,-677"/>
<text text-anchor="middle" x="358" y="-693" font-family="Times,serif" font-size="6.00">node_0x77c1b0</text>
</g>
<!-- node_0x750040&#45;&gt;node_0x77c1b0 -->
<g id="edge20" class="edge"><title>node_0x750040:f0&#45;&gt;node_0x77c1b0:f0</title>
<path fill="none" stroke="black" d="M282,-695C294.45,-695 308.048,-695 320.255,-695"/>
<polygon fill="black" stroke="black" points="320.561,-698.5 330.561,-695 320.561,-691.5 320.561,-698.5"/>
</g>
<!-- node_0x7542e0 -->
<g id="node37" class="node"><title>node_0x7542e0</title>
<polygon fill="none" stroke="black" points="205,-723 205,-759 259,-759 259,-723 205,-723"/>
<text text-anchor="middle" x="232" y="-748" font-family="Times,serif" font-size="6.00">0x7542e0</text>
<polyline fill="none" stroke="black" points="205,-741.8 259,-741.8 "/>
<text text-anchor="middle" x="232" y="-730.3" font-family="Times,serif" font-size="6.00">System.String</text>
</g>
<!-- node_0x758020 -->
<g id="node40" class="node"><title>node_0x758020</title>
<polygon fill="none" stroke="black" points="26.665,-778 26.665,-814 107.335,-814 107.335,-778 26.665,-778"/>
<text text-anchor="middle" x="67" y="-803" font-family="Times,serif" font-size="6.00">0x758020</text>
<polyline fill="none" stroke="black" points="26.665,-796.8 107.335,-796.8 "/>
<text text-anchor="middle" x="67" y="-785.3" font-family="Times,serif" font-size="6.00">System.Reflection.Missing</text>
</g>
<!-- node_0x758028 -->
<g id="node41" class="node"><title>node_0x758028</title>
<polygon fill="none" stroke="black" points="40,-833 40,-869 94,-869 94,-833 40,-833"/>
<text text-anchor="middle" x="67" y="-858" font-family="Times,serif" font-size="6.00">0x758028</text>
<polyline fill="none" stroke="black" points="40,-851.8 94,-851.8 "/>
<text text-anchor="middle" x="67" y="-840.3" font-family="Times,serif" font-size="6.00">.Default</text>
</g>
<!-- node_0x758030 -->
<g id="node42" class="node"><title>node_0x758030</title>
<polygon fill="none" stroke="black" points="40,-888 40,-924 94,-924 94,-888 40,-888"/>
<text text-anchor="middle" x="67" y="-913" font-family="Times,serif" font-size="6.00">0x758030</text>
<polyline fill="none" stroke="black" points="40,-906.8 94,-906.8 "/>
<text text-anchor="middle" x="67" y="-895.3" font-family="Times,serif" font-size="6.00">System.Object</text>
</g>
<!-- node_0x758038 -->
<g id="node43" class="node"><title>node_0x758038</title>
<polygon fill="none" stroke="black" points="40,-943 40,-979 94,-979 94,-943 40,-943"/>
<text text-anchor="middle" x="67" y="-968" font-family="Times,serif" font-size="6.00">0x758038</text>
<polyline fill="none" stroke="black" points="40,-961.8 94,-961.8 "/>
<text text-anchor="middle" x="67" y="-950.3" font-family="Times,serif" font-size="6.00">System.Object</text>
</g>
<!-- node_0x75c010 -->
<g id="node44" class="node"><title>node_0x75c010</title>
<polygon fill="none" stroke="black" points="169.833,-1053 169.833,-1089 294.167,-1089 294.167,-1053 169.833,-1053"/>
<text text-anchor="middle" x="232" y="-1078" font-family="Times,serif" font-size="6.00">0x75c010</text>
<polyline fill="none" stroke="black" points="169.833,-1071.8 294.167,-1071.8 "/>
<text text-anchor="middle" x="232" y="-1060.3" font-family="Times,serif" font-size="6.00">System.Runtime.Remoting.Contexts.Context</text>
</g>
<!-- node_0x760030 -->
<g id="node67" class="node"><title>node_0x760030</title>
<polygon fill="none" stroke="black" points="512,-146 512,-182 566,-182 566,-146 512,-146"/>
<text text-anchor="middle" x="539" y="-171" font-family="Times,serif" font-size="6.00">0x760030</text>
<polyline fill="none" stroke="black" points="512,-164.8 566,-164.8 "/>
<text text-anchor="middle" x="539" y="-153.3" font-family="Times,serif" font-size="6.00">.Bar</text>
</g>
<!-- node_0x760020&#45;&gt;node_0x760030 -->
<g id="edge46" class="edge"><title>node_0x760020:f0&#45;&gt;node_0x760030:f0</title>
<path fill="none" stroke="black" d="M476,-145C492.152,-145 492.551,-162.78 502.303,-170.004"/>
<polygon fill="black" stroke="black" points="501.412,-173.391 512,-173 503.479,-166.704 501.412,-173.391"/>
</g>
<!-- node_0x75c080 -->
<g id="node54" class="node"><title>node_0x75c080</title>
<polygon fill="none" stroke="black" points="601.756,-118 601.756,-154 670.244,-154 670.244,-118 601.756,-118"/>
<text text-anchor="middle" x="636" y="-143" font-family="Times,serif" font-size="6.00">0x75c080</text>
<polyline fill="none" stroke="black" points="601.756,-136.8 670.244,-136.8 "/>
<text text-anchor="middle" x="636" y="-125.3" font-family="Times,serif" font-size="6.00">System.EventHandler</text>
</g>
<!-- node_0x75c080&#45;&gt;node_0x760020 -->
<g id="edge38" class="edge"><title>node_0x75c080:f0&#45;&gt;node_0x760020:f0</title>
<path fill="none" stroke="black" d="M602,-145C585.508,-145 582.369,-138.015 566,-136 542.18,-133.068 535.82,-133.068 512,-136 499.595,-137.527 494.789,-141.908 486.011,-143.941"/>
<polygon fill="black" stroke="black" points="485.576,-140.467 476,-145 486.313,-147.428 485.576,-140.467"/>
</g>
<!-- node_0x75c0b8 -->
<g id="node56" class="node"><title>node_0x75c0b8</title>
<polygon fill="none" stroke="black" points="19.6719,-1163 19.6719,-1199 114.328,-1199 114.328,-1163 19.6719,-1163"/>
<text text-anchor="middle" x="67" y="-1188" font-family="Times,serif" font-size="6.00">0x75c0b8</text>
<polyline fill="none" stroke="black" points="19.6719,-1181.8 114.328,-1181.8 "/>
<text text-anchor="middle" x="67" y="-1170.3" font-family="Times,serif" font-size="6.00">System.Reflection.MemberFilter</text>
</g>
<!-- node_0x75c0f0 -->
<g id="node57" class="node"><title>node_0x75c0f0</title>
<polygon fill="none" stroke="black" points="19.6719,-1218 19.6719,-1254 114.328,-1254 114.328,-1218 19.6719,-1218"/>
<text text-anchor="middle" x="67" y="-1243" font-family="Times,serif" font-size="6.00">0x75c0f0</text>
<polyline fill="none" stroke="black" points="19.6719,-1236.8 114.328,-1236.8 "/>
<text text-anchor="middle" x="67" y="-1225.3" font-family="Times,serif" font-size="6.00">System.Reflection.MemberFilter</text>
</g>
<!-- node_0x75c128 -->
<g id="node58" class="node"><title>node_0x75c128</title>
<polygon fill="none" stroke="black" points="19.6719,-1273 19.6719,-1309 114.328,-1309 114.328,-1273 19.6719,-1273"/>
<text text-anchor="middle" x="67" y="-1298" font-family="Times,serif" font-size="6.00">0x75c128</text>
<polyline fill="none" stroke="black" points="19.6719,-1291.8 114.328,-1291.8 "/>
<text text-anchor="middle" x="67" y="-1280.3" font-family="Times,serif" font-size="6.00">System.Reflection.MemberFilter</text>
</g>
<!-- node_0x75c160 -->
<g id="node59" class="node"><title>node_0x75c160</title>
<polygon fill="none" stroke="black" points="19.2559,-421 19.2559,-457 114.744,-457 114.744,-421 19.2559,-421"/>
<text text-anchor="middle" x="67" y="-446" font-family="Times,serif" font-size="6.00">0x75c160</text>
<polyline fill="none" stroke="black" points="19.2559,-439.8 114.744,-439.8 "/>
<text text-anchor="middle" x="67" y="-428.3" font-family="Times,serif" font-size="6.00">System.OutOfMemoryException</text>
</g>
<!-- node_0x75c160&#45;&gt;node_0x73c010 -->
<g id="edge40" class="edge"><title>node_0x75c160:f0&#45;&gt;node_0x73c010:f0</title>
<path fill="none" stroke="black" d="M116,-448C151.444,-448 162.798,-448 193.725,-448"/>
<polygon fill="black" stroke="black" points="194,-451.5 204,-448 194,-444.5 194,-451.5"/>
</g>
<!-- node_0x75c198 -->
<g id="node61" class="node"><title>node_0x75c198</title>
<polygon fill="none" stroke="black" points="19.7627,-366 19.7627,-402 114.237,-402 114.237,-366 19.7627,-366"/>
<text text-anchor="middle" x="67" y="-391" font-family="Times,serif" font-size="6.00">0x75c198</text>
<polyline fill="none" stroke="black" points="19.7627,-384.8 114.237,-384.8 "/>
<text text-anchor="middle" x="67" y="-373.3" font-family="Times,serif" font-size="6.00">System.NullReferenceException</text>
</g>
<!-- node_0x75c198&#45;&gt;node_0x738010 -->
<g id="edge42" class="edge"><title>node_0x75c198:f0&#45;&gt;node_0x738010:f0</title>
<path fill="none" stroke="black" d="M115,-393C150.847,-393 162.33,-393 193.608,-393"/>
<polygon fill="black" stroke="black" points="194,-396.5 204,-393 194,-389.5 194,-396.5"/>
</g>
<!-- node_0x75c1d0 -->
<g id="node63" class="node"><title>node_0x75c1d0</title>
<polygon fill="none" stroke="black" points="19.2559,-723 19.2559,-759 114.744,-759 114.744,-723 19.2559,-723"/>
<text text-anchor="middle" x="67" y="-748" font-family="Times,serif" font-size="6.00">0x75c1d0</text>
<polyline fill="none" stroke="black" points="19.2559,-741.8 114.744,-741.8 "/>
<text text-anchor="middle" x="67" y="-730.3" font-family="Times,serif" font-size="6.00">System.StackOverflowException</text>
</g>
<!-- node_0x75c1d0&#45;&gt;node_0x7542e0 -->
<g id="edge44" class="edge"><title>node_0x75c1d0:f0&#45;&gt;node_0x7542e0:f0</title>
<path fill="none" stroke="black" d="M116,-750C151.444,-750 162.798,-750 193.725,-750"/>
<polygon fill="black" stroke="black" points="194,-753.5 204,-750 194,-746.5 194,-753.5"/>
</g>
<!-- node_0x760010 -->
<g id="node65" class="node"><title>node_0x760010</title>
<polygon fill="none" stroke="black" points="40,-1328 40,-1364 94,-1364 94,-1328 40,-1328"/>
<text text-anchor="middle" x="67" y="-1353" font-family="Times,serif" font-size="6.00">0x760010</text>
<polyline fill="none" stroke="black" points="40,-1346.8 94,-1346.8 "/>
<text text-anchor="middle" x="67" y="-1335.3" font-family="Times,serif" font-size="6.00">System.Type[]</text>
</g>
<!-- node_0x760030&#45;&gt;node_0x75c080 -->
<g id="edge48" class="edge"><title>node_0x760030:f0&#45;&gt;node_0x75c080:f0</title>
<path fill="none" stroke="black" d="M566,-173C582.152,-173 582.551,-155.22 592.303,-147.996"/>
<polygon fill="black" stroke="black" points="593.479,-151.296 602,-145 591.412,-144.609 593.479,-151.296"/>
</g>
<!-- node_0x760040 -->
<g id="node69" class="node"><title>node_0x760040</title>
<polygon fill="none" stroke="black" points="39.4209,-1383 39.4209,-1419 94.5791,-1419 94.5791,-1383 39.4209,-1383"/>
<text text-anchor="middle" x="67" y="-1408" font-family="Times,serif" font-size="6.00">0x760040</text>
<polyline fill="none" stroke="black" points="39.4209,-1401.8 94.5791,-1401.8 "/>
<text text-anchor="middle" x="67" y="-1390.3" font-family="Times,serif" font-size="6.00">System.Object[]</text>
</g>
<!-- node_0x760050 -->
<g id="node70" class="node"><title>node_0x760050</title>
<polygon fill="none" stroke="black" points="31.2954,-668 31.2954,-704 102.705,-704 102.705,-668 31.2954,-668"/>
<text text-anchor="middle" x="67" y="-693" font-family="Times,serif" font-size="6.00">0x760050</text>
<polyline fill="none" stroke="black" points="31.2954,-686.8 102.705,-686.8 "/>
<text text-anchor="middle" x="67" y="-675.3" font-family="Times,serif" font-size="6.00">System.MonoTypeInfo</text>
</g>
<!-- node_0x760050&#45;&gt;node_0x750040 -->
<g id="edge50" class="edge"><title>node_0x760050:f0&#45;&gt;node_0x750040:f0</title>
<path fill="none" stroke="black" d="M104,-695C135.01,-695 145.216,-695 171.838,-695"/>
<polygon fill="black" stroke="black" points="172,-698.5 182,-695 172,-691.5 172,-698.5"/>
</g>
<!-- node_0x764010 -->
<g id="node72" class="node"><title>node_0x764010</title>
<polygon fill="none" stroke="black" points="40,-1438 40,-1474 94,-1474 94,-1438 40,-1438"/>
<text text-anchor="middle" x="67" y="-1463" font-family="Times,serif" font-size="6.00">0x764010</text>
<polyline fill="none" stroke="black" points="40,-1456.8 94,-1456.8 "/>
<text text-anchor="middle" x="67" y="-1445.3" font-family="Times,serif" font-size="6.00">System.String</text>
</g>
<!-- node_0x768010 -->
<g id="node73" class="node"><title>node_0x768010</title>
<polygon fill="none" stroke="black" points="40,-1493 40,-1529 94,-1529 94,-1493 40,-1493"/>
<text text-anchor="middle" x="67" y="-1518" font-family="Times,serif" font-size="6.00">0x768010</text>
<polyline fill="none" stroke="black" points="40,-1511.8 94,-1511.8 "/>
<text text-anchor="middle" x="67" y="-1500.3" font-family="Times,serif" font-size="6.00">System.String</text>
</g>
<!-- node_0x76c010 -->
<g id="node74" class="node"><title>node_0x76c010</title>
<polygon fill="none" stroke="black" points="40,-1548 40,-1584 94,-1584 94,-1548 40,-1548"/>
<text text-anchor="middle" x="67" y="-1573" font-family="Times,serif" font-size="6.00">0x76c010</text>
<polyline fill="none" stroke="black" points="40,-1566.8 94,-1566.8 "/>
<text text-anchor="middle" x="67" y="-1555.3" font-family="Times,serif" font-size="6.00">System.String</text>
</g>
<!-- node_0x770010 -->
<g id="node75" class="node"><title>node_0x770010</title>
<polygon fill="none" stroke="black" points="40,-1603 40,-1639 94,-1639 94,-1603 40,-1603"/>
<text text-anchor="middle" x="67" y="-1628" font-family="Times,serif" font-size="6.00">0x770010</text>
<polyline fill="none" stroke="black" points="40,-1621.8 94,-1621.8 "/>
<text text-anchor="middle" x="67" y="-1610.3" font-family="Times,serif" font-size="6.00">System.String</text>
</g>
<!-- node_0x774010 -->
<g id="node76" class="node"><title>node_0x774010</title>
<polygon fill="none" stroke="black" points="192.843,-1108 192.843,-1144 271.157,-1144 271.157,-1108 192.843,-1108"/>
<text text-anchor="middle" x="232" y="-1133" font-family="Times,serif" font-size="6.00">0x774010</text>
<polyline fill="none" stroke="black" points="192.843,-1126.8 271.157,-1126.8 "/>
<text text-anchor="middle" x="232" y="-1115.3" font-family="Times,serif" font-size="6.00">System.Threading.Thread</text>
</g>
<!-- node_0x778010 -->
<g id="node78" class="node"><title>node_0x778010</title>
<polygon fill="none" stroke="black" points="18.5146,-1108 18.5146,-1144 115.485,-1144 115.485,-1108 18.5146,-1108"/>
<text text-anchor="middle" x="67" y="-1133" font-family="Times,serif" font-size="6.00">0x778010</text>
<polyline fill="none" stroke="black" points="18.5146,-1126.8 115.485,-1126.8 "/>
<text text-anchor="middle" x="67" y="-1115.3" font-family="Times,serif" font-size="6.00">System.Threading.InternalThread</text>
</g>
<!-- node_0x774010&#45;&gt;node_0x778010 -->
<g id="edge52" class="edge"><title>node_0x774010:f0&#45;&gt;node_0x778010:f0</title>
<path fill="none" stroke="black" d="M191.607,-1135.1C161.801,-1143.03 151.797,-1143.87 126.169,-1137.61"/>
<polygon fill="black" stroke="black" points="126.951,-1134.2 116.395,-1135.11 125.211,-1140.98 126.951,-1134.2"/>
</g>
<!-- node_0x778010&#45;&gt;node_0x75c010 -->
<g id="edge56" class="edge"><title>node_0x778010:f0&#45;&gt;node_0x75c010:f0</title>
<path fill="none" stroke="black" d="M116,-1135C146.376,-1135 138.406,-1091.76 160.094,-1081.96"/>
<polygon fill="black" stroke="black" points="160.868,-1085.37 170,-1080 159.511,-1078.51 160.868,-1085.37"/>
</g>
<!-- node_0x778010&#45;&gt;node_0x774010 -->
<g id="edge58" class="edge"><title>node_0x778010:f0&#45;&gt;node_0x774010:f0</title>
<path fill="none" stroke="black" d="M116,-1135C146.215,-1126.95 156.159,-1126.1 182.098,-1132.45"/>
<polygon fill="black" stroke="black" points="181.443,-1135.9 192,-1135 183.187,-1129.12 181.443,-1135.9"/>
</g>
<!-- node_0x774038 -->
<g id="node79" class="node"><title>node_0x774038</title>
<polygon fill="none" stroke="black" points="192.843,-998 192.843,-1034 271.157,-1034 271.157,-998 192.843,-998"/>
<text text-anchor="middle" x="232" y="-1023" font-family="Times,serif" font-size="6.00">0x774038</text>
<polyline fill="none" stroke="black" points="192.843,-1016.8 271.157,-1016.8 "/>
<text text-anchor="middle" x="232" y="-1005.3" font-family="Times,serif" font-size="6.00">System.Threading.Thread</text>
</g>
<!-- node_0x7780c0 -->
<g id="node81" class="node"><title>node_0x7780c0</title>
<polygon fill="none" stroke="black" points="18.5146,-998 18.5146,-1034 115.485,-1034 115.485,-998 18.5146,-998"/>
<text text-anchor="middle" x="67" y="-1023" font-family="Times,serif" font-size="6.00">0x7780c0</text>
<polyline fill="none" stroke="black" points="18.5146,-1016.8 115.485,-1016.8 "/>
<text text-anchor="middle" x="67" y="-1005.3" font-family="Times,serif" font-size="6.00">System.Threading.InternalThread</text>
</g>
<!-- node_0x774038&#45;&gt;node_0x7780c0 -->
<g id="edge54" class="edge"><title>node_0x774038:f0&#45;&gt;node_0x7780c0:f0</title>
<path fill="none" stroke="black" d="M191.607,-1025.1C161.801,-1033.03 151.797,-1033.87 126.169,-1027.61"/>
<polygon fill="black" stroke="black" points="126.951,-1024.2 116.395,-1025.11 125.211,-1030.98 126.951,-1024.2"/>
</g>
<!-- node_0x7780c0&#45;&gt;node_0x75c010 -->
<g id="edge60" class="edge"><title>node_0x7780c0:f0&#45;&gt;node_0x75c010:f0</title>
<path fill="none" stroke="black" d="M116,-1025C146.376,-1025 138.406,-1068.24 160.094,-1078.04"/>
<polygon fill="black" stroke="black" points="159.511,-1081.49 170,-1080 160.868,-1074.63 159.511,-1081.49"/>
</g>
<!-- node_0x7780c0&#45;&gt;node_0x774038 -->
<g id="edge62" class="edge"><title>node_0x7780c0:f0&#45;&gt;node_0x774038:f0</title>
<path fill="none" stroke="black" d="M116,-1025C146.215,-1016.95 156.159,-1016.1 182.098,-1022.45"/>
<polygon fill="black" stroke="black" points="181.443,-1025.9 192,-1025 183.187,-1019.12 181.443,-1025.9"/>
</g>
<!-- node_0x1149434 -->
<g id="node86" class="node"><title>node_0x1149434</title>
<polygon fill="none" stroke="red" points="40,-247 40,-283 94,-283 94,-247 40,-247"/>
<text text-anchor="middle" x="67" y="-272" font-family="Times,serif" font-size="6.00">static data</text>
<polyline fill="none" stroke="red" points="40,-265.8 94,-265.8 "/>
<text text-anchor="middle" x="67" y="-254.3" font-family="Times,serif" font-size="6.00">.Foo</text>
</g>
<!-- node_0x1149434&#45;&gt;node_0x1800898 -->
<g id="edge64" class="edge"><title>node_0x1149434:f0&#45;&gt;node_0x1800898:f0</title>
<path fill="none" stroke="black" d="M95,-274C115.123,-274 117.621,-285.31 134,-297 153.625,-311.007 154.248,-331.219 171.842,-336.627"/>
<polygon fill="black" stroke="black" points="171.621,-340.129 182,-338 172.559,-333.192 171.621,-340.129"/>
</g>
<!-- node_0x80000003 -->
<g id="node89" class="node"><title>node_0x80000003</title>
<polygon fill="none" stroke="black" points="201.668,-256 201.668,-292 262.332,-292 262.332,-256 201.668,-256"/>
<text text-anchor="middle" x="232" y="-272" font-family="Times,serif" font-size="6.00">node_0x80000003</text>
</g>
<!-- node_0x1149434&#45;&gt;node_0x80000003 -->
<g id="edge66" class="edge"><title>node_0x1149434:f0&#45;&gt;node_0x80000003:f0</title>
<path fill="none" stroke="black" d="M95,-274C127.336,-274 163.965,-274 191.208,-274"/>
<polygon fill="black" stroke="black" points="191.529,-277.5 201.529,-274 191.529,-270.5 191.529,-277.5"/>
</g>
<!-- node_0x6004486 -->
<g id="node91" class="node"><title>node_0x6004486</title>
<polygon fill="none" stroke="black" points="203.168,-201 203.168,-237 260.832,-237 260.832,-201 203.168,-201"/>
<text text-anchor="middle" x="232" y="-217" font-family="Times,serif" font-size="6.00">node_0x6004486</text>
</g>
<!-- node_0x1149434&#45;&gt;node_0x6004486 -->
<g id="edge68" class="edge"><title>node_0x1149434:f0&#45;&gt;node_0x6004486:f0</title>
<path fill="none" stroke="black" d="M95,-274C100.242,-274 154.756,-251.529 193.412,-235.313"/>
<polygon fill="black" stroke="black" points="194.996,-238.444 202.859,-231.343 192.284,-231.991 194.996,-238.444"/>
</g>
<!-- node_0x297ce74 -->
<g id="node92" class="node"><title>node_0x297ce74</title>
<polygon fill="none" stroke="red" points="4.83301,-1658 4.83301,-1694 129.167,-1694 129.167,-1658 4.83301,-1658"/>
<text text-anchor="middle" x="67" y="-1683" font-family="Times,serif" font-size="6.00">static data</text>
<polyline fill="none" stroke="red" points="4.83301,-1676.8 129.167,-1676.8 "/>
<text text-anchor="middle" x="67" y="-1665.3" font-family="Times,serif" font-size="6.00">System.Runtime.Remoting.Contexts.Context</text>
</g>
<!-- node_0x297a82c -->
<g id="node94" class="node"><title>node_0x297a82c</title>
<polygon fill="none" stroke="black" points="203.505,-1667 203.505,-1703 260.495,-1703 260.495,-1667 203.505,-1667"/>
<text text-anchor="middle" x="232" y="-1683" font-family="Times,serif" font-size="6.00">node_0x297a82c</text>
</g>
<!-- node_0x297ce74&#45;&gt;node_0x297a82c -->
<g id="edge70" class="edge"><title>node_0x297ce74:f0&#45;&gt;node_0x297a82c:f0</title>
<path fill="none" stroke="black" d="M130,-1685C150.918,-1685 174.249,-1685 193.312,-1685"/>
<polygon fill="black" stroke="black" points="193.422,-1688.5 203.422,-1685 193.422,-1681.5 193.422,-1688.5"/>
</g>
</g>
</svg>
